<?xml version="1.0" encoding="iso-8859-1"?>
<!-- Generator: Adobe Illustrator 19.0.0, SVG Export Plug-In . SVG Version: 6.00 Build 0)  -->
<svg version="1.1" id="Layer_1" xmlns="http://www.w3.org/2000/svg" xmlns:xlink="http://www.w3.org/1999/xlink" x="0px" y="0px"
	 viewBox="0 0 512.001 512.001" style="enable-background:new 0 0 512.001 512.001;" xml:space="preserve">
<path style="opacity:0.27;fill:#664400;enable-background:new    ;" d="M183.652,122.391h149.521L370.218,0
	c-39.786,39.786-188.573,39.786-228.36,0L183.652,122.391z"/>
<rect x="153.098" y="77.85" style="opacity:0.16;fill:#77757E;enable-background:new    ;" width="209.019" height="44.537"/>
<polygon style="fill:#4675CF;" points="141.858,0 256,215 83.596,101.835 "/>
<polygon style="fill:#5374FC;" points="370.143,0 256,215 428.405,101.835 "/>
<path style="fill:#77757E;" d="M228.11,249.303v-30.264c0-15.34,12.55-27.89,27.89-27.89l0,0c15.34,0,27.89,12.55,27.89,27.89
	v30.264H228.11z"/>
<circle style="fill:#DFDFE2;" cx="256.003" cy="375.643" r="136.353"/>
<path style="opacity:0.28;fill:#77757E;enable-background:new    ;" d="M319.088,254.774c4.417,13.42,6.815,27.758,6.815,42.657
	c0,75.306-61.048,136.354-136.354,136.354c-22.788,0-44.264-5.598-63.145-15.481c17.908,54.413,69.132,93.697,129.539,93.697
	c75.306,0,136.354-61.048,136.354-136.354C392.298,323.128,362.602,277.552,319.088,254.774z"/>
<circle style="fill:#ACAAB1;" cx="256.003" cy="375.643" r="102.905"/>
<g style="opacity:0.77;">
	<path style="fill:#FFFFFF;" d="M307.16,286.289l-153.932,91.673c0.788,35.684,19.741,66.885,47.978,84.73l157.567-93.837
		C356.466,333.472,336.284,302.966,307.16,286.289z"/>
</g>
<g>
</g>
<g>
</g>
<g>
</g>
<g>
</g>
<g>
</g>
<g>
</g>
<g>
</g>
<g>
</g>
<g>
</g>
<g>
</g>
<g>
</g>
<g>
</g>
<g>
</g>
<g>
</g>
<g>
</g>
</svg>
