<svg id="Capa_1" enable-background="new 0 0 512 512" height="512" viewBox="0 0 512 512" width="512" xmlns="http://www.w3.org/2000/svg"><g><g><path d="m105.385 269.024-103.846-27.869c-.207.773-.56 1.529-.557 2.32.057 13.9 12.345 37.678 31.8 52.506l-.012.009c-.207.773-.545 1.529-.557 2.32-.381 25.542 33.811 53.057 33.811 53.057-.207.773-.519 1.53-.557 2.319-.685 14.458 12.391 40.014 32.24 52.636l57.027 15.304z" fill="#ffe27a"/><g fill="#f9cf58"><path d="m97.709 387.74c-16.843-4.52-28.848-18.073-32.238-34.055-4.925 23.185 9.104 46.427 32.238 52.635l57.027 15.305 2.21-11.539-14.499-10.34z"/><path d="m64.454 332.363c-16.843-4.52-28.848-18.072-32.238-34.055-4.925 23.185 9.104 46.427 32.238 52.635l64.089 17.2 2.042-10.98-9.054-9.483z"/><path d="m33.223 277.529c-16.843-4.52-28.848-18.073-32.238-34.055-4.925 23.185 9.104 46.427 32.238 52.635l80.298 21.55 1.039-10.375-4.967-9.26z"/></g><path d="m406.615 269.024 103.846-27.869c.207.773.56 1.529.557 2.32-.057 13.9-12.345 37.678-31.8 52.506l.012.009c.207.773.545 1.529.557 2.32.381 25.542-33.811 53.057-33.811 53.057.207.773.519 1.53.557 2.319.685 14.458-12.391 40.014-32.24 52.636l-57.027 15.304z" fill="#ffe27a"/><path d="m414.291 387.74c16.843-4.52 28.848-18.073 32.238-34.055 4.925 23.185-9.104 46.427-32.238 52.635l-57.027 15.305-2.21-11.539 14.499-10.34z" fill="#f9cf58"/><path d="m447.546 332.363c16.843-4.52 28.848-18.072 32.238-34.055 4.925 23.185-9.104 46.427-32.238 52.635l-64.089 17.2-2.042-10.98 9.054-9.483z" fill="#f9cf58"/><path d="m478.777 277.529c16.843-4.52 28.848-18.073 32.238-34.055 4.925 23.185-9.104 46.427-32.238 52.635l-80.297 21.55-1.039-10.375 4.967-9.26z" fill="#f9cf58"/><path d="m256 182.115 152.705 64.217c-10.225 196.024-152.705 256.668-152.705 256.668s-140.574-65.583-152.705-256.668z" fill="#ffcb5b"/><path d="m257.837 492.75c-1.184.455-2.49.455-3.674 0-15.845-6.09-129.341-56.145-149.299-247.078l-1.569.66c15.545 220.84 152.705 265.668 152.705 265.668s137.16-44.828 152.705-265.668l-1.569-.66c-19.958 190.933-133.454 240.988-149.299 247.078z" fill="#f7b737"/><path d="m340.765 173.115h-169.53c-34.781 0-33.619-32.985-33.619-32.985h236.769s0 32.985-33.62 32.985z" fill="#ffe27a"/><path d="m340.765 163.534h-169.53c-15.005 0-27.71-9.832-32.034-23.404h-1.585v8.365c0 18.567 15.052 33.619 33.619 33.619h169.53c18.567 0 33.619-15.052 33.619-33.619v-8.365h-1.585c-4.324 13.572-17.029 23.404-32.034 23.404z" fill="#f9cf58"/><path d="m354.343 132.388h-196.686l-9-10.838v-116.389c0-2.851 2.311-5.161 5.161-5.161h204.363c2.85 0 5.161 2.311 5.161 5.161v116.389z" fill="#0083fd"/><path d="m148.657 121.55h214.686v18.581h-214.686z" fill="#0072fc"/><path d="m302.695 132.388h-93.39l-9-10.838v-121.55h111.39v121.55z" fill="#8bcaff"/><path d="m200.305 121.55h111.389v18.581h-111.389z" fill="#60b8ff"/><path d="m257.938 228.529 108.551 45.649c-9.225 135.796-110.489 183.223-110.489 183.223s-101.638-54.972-110.489-183.223l108.551-45.649c1.239-.521 2.637-.521 3.876 0z" fill="#ff9838"/><path d="m254.087 447.107c-13.247-5.264-91.282-41.654-106.882-173.642l-1.694.712c11.247 159.789 110.489 192.224 110.489 192.224s99.242-32.435 110.489-192.223l-1.694-.712c-15.6 131.987-93.635 168.378-106.882 173.642-1.232.489-2.594.489-3.826-.001z" fill="#ff8709"/><path d="m265.141 288.148 9.313 18.893c1.485 3.012 4.355 5.1 7.676 5.583l20.825 3.03c8.362 1.217 11.7 11.504 5.65 17.409l-15.069 14.706c-2.403 2.345-3.499 5.723-2.932 9.034l3.557 20.765c1.428 8.338-7.313 14.696-14.791 10.759l-18.626-9.804c-2.97-1.563-6.518-1.563-9.488 0l-18.626 9.804c-7.479 3.937-16.22-2.422-14.791-10.759l3.557-20.765c.567-3.311-.529-6.689-2.932-9.034l-15.069-14.706c-6.051-5.905-2.712-16.193 5.65-17.409l20.825-3.03c3.32-.483 6.191-2.571 7.676-5.583l9.313-18.893c3.739-7.586 14.543-7.586 18.282 0z" fill="#fff5f5"/><g><path d="m253.671 359.252-35.912 18.902c-.932 8.045 7.568 14.016 14.87 10.173l18.626-9.804c2.969-1.563 6.518-1.563 9.488 0l18.626 9.804c7.302 3.843 15.802-2.128 14.87-10.173l-35.912-18.902c-1.456-.767-3.198-.767-4.656 0z" fill="#efe2dd"/></g><path d="m395.641 147.872h-279.282c-4.276 0-7.742-3.466-7.742-7.742s3.466-7.742 7.742-7.742h279.282c4.276 0 7.742 3.466 7.742 7.742s-3.466 7.742-7.742 7.742z" fill="#ff9838"/></g></g></svg>