<svg height="511pt" viewBox="-66 0 511 511.99925" width="511pt" xmlns="http://www.w3.org/2000/svg"><g fill="#020202"><path d="m40.5 190c0 82.710938 67.289062 150 150 150s150-67.289062 150-150-67.289062-150-150-150-150 67.289062-150 150zm150-130c71.683594 0 130 58.316406 130 130s-58.316406 130-130 130-130-58.316406-130-130 58.316406-130 130-130zm0 0"/><path d="m97.890625 172.171875 38.761719 38.191406-8.917969 53.675781c-.621094 3.738282.921875 7.503907 3.988281 9.730469 3.0625 2.226563 7.121094 2.527344 10.484375.785157l48.292969-25.078126 48.289062 25.078126c3.335938 1.730468 7.394532 1.460937 10.484376-.785157 3.066406-2.226562 4.609374-5.992187 3.988281-9.730469l-8.917969-53.675781 38.761719-38.191406c2.699219-2.65625 3.664062-6.609375 2.492187-10.214844-1.171875-3.601562-4.277344-6.230469-8.023437-6.796875l-53.792969-8.097656-24.339844-48.675781c-1.691406-3.386719-5.15625-5.527344-8.941406-5.527344-3.789062 0-7.25 2.140625-8.945312 5.527344l-24.339844 48.675781-53.792969 8.097656c-3.746094.5625-6.851563 3.195313-8.023437 6.796875-1.171876 3.605469-.203126 7.558594 2.492187 10.214844zm67.4375-6.105469c3.21875-.484375 6-2.503906 7.457031-5.414062l17.714844-35.433594 17.714844 35.433594c1.457031 2.910156 4.238281 4.929687 7.457031 5.414062l39.152344 5.894532-28.214844 27.792968c-2.316406 2.285156-3.378906 5.554688-2.847656 8.765625l6.492187 39.066407-35.148437-18.25c-1.441407-.75-3.023438-1.125-4.605469-1.125s-3.164062.375-4.609375 1.125l-35.148437 18.25 6.492187-39.066407c.535156-3.210937-.527344-6.480469-2.847656-8.765625l-28.210938-27.792968zm0 0"/><path d="m200.5 10c0 5.523438-4.476562 10-10 10s-10-4.476562-10-10 4.476562-10 10-10 10 4.476562 10 10zm0 0"/><path d="m143.371094 5.894531c-84.121094 21.472657-142.871094 97.179688-142.871094 184.105469 0 53.988281 22.699219 104.859375 62.546875 140.886719l-60.246094 106.175781c-1.9375 3.417969-1.695312 7.652344.617188 10.824219 2.3125 3.175781 6.265625 4.703125 10.113281 3.902343l68.417969-14.207031 24.046875 67.761719c1.304687 3.6875 4.644531 6.269531 8.542968 6.617188 3.898438.347656 7.636719-1.617188 9.570313-5.019532l66.390625-116.71875 66.386719 116.71875c1.789062 3.144532 5.117187 5.054688 8.6875 5.054688.292969 0 .589843-.011719.882812-.035156 3.898438-.347657 7.238281-2.933594 8.546875-6.617188l24.042969-67.761719 68.417969 14.207031c3.84375.796876 7.800781-.730468 10.113281-3.902343 2.316406-3.171875 2.554687-7.40625.617187-10.824219l-60.246093-106.175781c39.847656-36.027344 62.546875-86.898438 62.546875-140.886719 0-86.925781-58.75-162.632812-142.867188-184.105469-5.355468-1.367187-10.796875 1.863281-12.164062 7.214844-1.367188 5.351563 1.863281 10.796875 7.214844 12.164063 75.257812 19.210937 127.820312 86.949218 127.820312 164.726562 0 94.660156-76.878906 170-170 170-93.1875 0-170-75.402344-170-170 0-77.777344 52.558594-145.515625 127.816406-164.726562 5.351563-1.367188 8.582032-6.8125 7.21875-12.164063-1.367187-5.351563-6.808594-8.582031-12.164062-7.214844zm-25.835938 472.160157-19.652344-55.378907c-1.671874-4.710937-6.5625-7.464843-11.457031-6.449219l-55.324219 11.488282 47.679688-84.03125c27.800781 20.210937 60.71875 32.523437 94.949219 35.570312zm177.035156-61.828126c-4.890624-1.015624-9.785156 1.738282-11.457031 6.449219l-19.648437 55.378907-56.199219-98.800782c34.234375-3.046875 67.148437-15.359375 94.953125-35.570312l47.679688 84.03125zm0 0"/></g></svg>