<svg id="Capa_1" enable-background="new 0 0 512 512" height="512" viewBox="0 0 512 512" width="512" xmlns="http://www.w3.org/2000/svg"><g><g><path d="m233.973 381.813-76.746-25.582-22.498-.126-39.353 113.065c-1.254 3.601 1.664 7.284 5.457 6.886l55.163-5.776c1.541-.161 3.073.372 4.181 1.455l39.655 38.779c2.726 2.666 7.3 1.591 8.553-2.01l39.611-113.805z" fill="#0083fd"/><path d="m247.996 394.699 8.004-22.995-113.29-38.526-7.98 22.927c32.17 22.955 71.122 37.007 113.266 38.594z" fill="#0072fc"/><path d="m278.027 381.813 76.746-25.582 22.498-.126 39.354 113.066c1.254 3.601-1.664 7.284-5.457 6.886l-55.163-5.776c-1.541-.161-3.073.372-4.18 1.455l-39.655 38.779c-2.726 2.666-7.3 1.591-8.553-2.01l-39.611-113.805z" fill="#0083fd"/><path d="m264.004 394.699-8.004-22.995 113.29-38.526 7.98 22.927c-32.17 22.955-71.122 37.007-113.266 38.594z" fill="#0072fc"/><path d="m256 356.105c-185.62 0-185.774-176.517-185.62-179.62 4.879-98.291 86.118-176.485 185.62-176.485s180.741 78.194 185.62 176.485c.154 3.103 0 179.62-185.62 179.62z" fill="#ff9838"/><path d="m256 352.969c-99.502 0-180.738-78.194-185.618-176.484-.154 3.103-.234 6.226-.234 9.367 0 102.643 83.209 185.852 185.852 185.852s185.852-83.209 185.852-185.852c0-3.141-.08-6.264-.234-9.367-4.88 98.29-86.116 176.484-185.618 176.484z" fill="#ff8709"/><path d="m402.412 185.852c0 62.694-65.551 137.412-146.412 137.412s-146.412-78.829-146.412-137.412c0-3.147.099-6.27.295-9.368 4.83-76.496 68.403-137.044 146.117-137.044s141.287 60.548 146.117 137.044c.196 3.098.295 6.221.295 9.368z" fill="#ce7430"/><path d="m256 313.529c-77.713 0-141.274-60.55-146.105-137.044-.196 3.098-.307 6.219-.307 9.367 0 80.861 65.551 146.412 146.412 146.412s146.412-65.551 146.412-146.412c0-3.148-.111-6.269-.307-9.367-4.831 76.494-68.392 137.044-146.105 137.044z" fill="#bc672e"/><path d="m256.185 272.82c-31.533 0-51.597-21.737-55.459-47.527-.351-2.346-.462-7.381-.462-7.381 2.685-6.841 9.347-11.685 17.14-11.685 10.165 0 18.406 8.24 18.406 18.406 0 11.235 9.14 20.375 20.375 20.375s20.376-9.14 20.376-20.375c0-3.378-.826-6.566-2.287-9.374 0 0-1.382-17.356-17.103-17.356-15.77 0-16.826-21.428-16.826-21.428 3.207-5.405 9.101-9.028 15.841-9.028 11.235 0 20.376-9.14 20.376-20.375s-9.141-20.375-20.376-20.375-20.375 9.14-20.375 20.375c0 10.166-8.241 18.406-18.406 18.406s-18.406-8.24-18.406-18.406c0-31.532 25.654-57.186 57.186-57.186 31.533 0 57.187 25.654 57.187 57.186 0 14.952-5.766 28.58-15.194 38.781 7.418 8.026 12.569 18.174 14.429 29.419 0 0 .057 6.172-.478 9.315-4.563 26.822-24.411 48.233-55.944 48.233z" fill="#ffaa5c"/><g fill="#ea9957"><path d="m256.185 185.523c-6.74 0-12.617-3.634-15.823-9.038-1.63 2.746-2.582 5.942-2.582 9.367 0 10.166 8.24 18.406 18.406 18.406 7.857 0 14.677 4.478 18.075 11.009 1.461-2.808 2.301-5.989 2.301-9.367-.001-11.237-9.142-20.377-20.377-20.377z"/><path d="m256.185 263.085c-27.409 0-50.367-19.387-55.905-45.166-.817 2.082-1.282 4.342-1.282 6.715 0 31.533 25.654 57.187 57.187 57.187s57.187-25.654 57.187-57.187c0-3.189-.277-6.312-.781-9.36-4.488 27.086-28.066 47.811-56.406 47.811z"/></g></g></g></svg>