<svg id="Capa_1" enable-background="new 0 0 512 512" height="512" viewBox="0 0 512 512" width="512" xmlns="http://www.w3.org/2000/svg"><g><g><path d="m327.549 367.65-26.47 11.444-24.775-6.713h-40.607l-26.26 6.576-24.985-11.307-19.474-29.478-9.032 8.54-.294 160.077c-.007 3.66 3.678 6.175 7.084 4.835l90.453-35.578c1.22-.48 2.576-.48 3.796 0l90.484 35.589c3.398 1.337 7.077-1.164 7.084-4.816l.293-159.618-8.967-8.923z" fill="#c61926"/><path d="m209.436 493.255 43.751-17.209c1.22-.48 2.576-.48 3.796 0l44.095 17.343v-103.644l-9-10.832-36.078-18.116-37.564 17.879-9 11.037z" fill="#ff4755"/><path d="m155.977 329.172-.032 17.54c9.236 3.535 16.936 10.711 20.958 20.295 9.384 22.36 37.345 29.852 56.651 15.18 13.266-10.082 31.625-10.082 44.891 0 19.306 14.672 47.267 7.18 56.651-15.18 3.845-9.162 11.052-16.122 19.748-19.806l.033-17.923z" fill="#b2182b"/><path d="m209.436 369.676v20.037c8.296.39 16.824-1.984 24.118-7.528 13.266-10.082 31.625-10.082 44.891 0 6.859 5.213 14.81 7.615 22.633 7.559v-19.832l-45.078-27.115z" fill="#fc2b3a"/><path d="m276.304 6.851c17.464-13.272 42.757-6.495 51.245 13.731 5.832 13.898 20.215 22.201 35.167 20.304 21.76-2.762 40.276 15.754 37.514 37.514-1.898 14.952 6.406 29.335 20.304 35.167 20.226 8.488 27.003 33.781 13.731 51.245-9.12 12-9.12 28.608 0 40.607 13.272 17.464 6.495 42.757-13.731 51.245-12.857 5.396-20.927 18.109-20.56 31.821.03 1.11.115 2.226.257 3.346 2.762 21.76-15.754 31.276-37.514 28.514-14.952-1.898-29.335 6.406-35.167 20.304-8.488 20.226-33.781 27.003-51.245 13.731-12-9.12-28.608-9.12-40.607 0-17.464 13.272-42.757 6.495-51.245-13.731-5.832-13.897-20.215-22.201-35.167-20.304-21.76 2.762-40.276-6.754-37.514-28.514.142-1.12.227-2.236.257-3.346.366-13.712-7.703-26.425-20.56-31.821-20.226-8.488-27.003-33.781-13.731-51.245 9.119-12 9.119-28.608 0-40.607-13.272-17.464-6.495-42.757 13.731-51.245 13.898-5.832 22.201-20.215 20.304-35.167-2.762-21.76 15.754-40.276 37.514-37.514 14.952 1.898 29.335-6.406 35.167-20.304 8.488-20.226 33.781-27.003 51.245-13.731 11.997 9.119 28.605 9.119 40.605 0z" fill="#ffcb5b"/><g><path d="m399.981 288.486c-5.313 14.09-19.78 23.792-36.05 21.727-15.122-1.919-29.668 6.479-35.567 20.535-8.585 20.456-34.166 27.31-51.828 13.887-12.136-9.223-28.933-9.223-41.069 0-17.663 13.423-43.243 6.569-51.828-13.887-5.899-14.056-20.445-22.454-35.567-20.535-16.271 2.065-30.737-7.637-36.05-21.727-.03 1.11-.108 2.226-.25 3.346-2.762 21.76 15.754 40.276 37.514 37.514 14.952-1.898 29.335 6.406 35.167 20.304 8.488 20.226 33.781 27.003 51.245 13.731 12-9.12 28.608-9.12 40.607 0 17.464 13.272 42.757 6.495 51.245-13.731 5.832-13.897 20.215-22.201 35.167-20.304 21.76 2.762 40.276-15.754 37.514-37.514-.143-1.12-.221-2.236-.25-3.346z" fill="#f7b737"/></g><g><g><path d="m256 301.66c-129.3 0-129.518-122.796-129.299-125.879 4.784-67.235 60.845-120.295 129.299-120.295s124.515 53.06 129.299 120.295c.219 3.083.331 125.879-129.299 125.879z" fill="#ff9838"/></g></g><path d="m256 296.077c-68.453 0-124.508-53.061-129.292-120.296-.219 3.083-.338 6.195-.338 9.334 0 71.593 58.037 129.63 129.63 129.63s129.63-58.037 129.63-129.63c0-3.139-.118-6.251-.338-9.334-4.784 67.236-60.839 120.296-129.292 120.296z" fill="#ff8709"/><path d="m267.222 122.198 11.433 23.165c1.823 3.693 5.346 6.253 9.422 6.846l25.564 3.715c10.264 1.492 14.363 14.105 6.935 21.345l-18.498 18.031c-2.949 2.875-4.295 7.017-3.599 11.077l4.367 25.46c.219 1.278.1 3.7.1 3.7l-18.257.492-28.689-15.083-28.688 15.082-18.203-.101s-.198-2.671.046-4.091l4.367-25.461c.696-4.059-.65-8.201-3.599-11.076l-18.498-18.031c-7.427-7.24-3.329-19.854 6.936-21.345l25.564-3.715c4.076-.592 7.599-3.152 9.422-6.846l11.433-23.165c4.588-9.3 17.852-9.3 22.442.001z" fill="#fff5f5"/><g><path d="m253.587 212.547-44.47 23.379c1.243 8.053 10.29 13.259 18.195 9.102l22.865-12.021c3.646-1.917 8.001-1.917 11.647 0l22.865 12.021c7.905 4.156 16.952-1.05 18.195-9.102l-44.471-23.379c-1.511-.795-3.315-.795-4.826 0z" fill="#efe2dd"/></g></g></g></svg>