<svg id="Capa_1" enable-background="new 0 0 512 512" height="512" viewBox="0 0 512 512" width="512" xmlns="http://www.w3.org/2000/svg"><g><g><path d="m379.542 392.813c3.005 4.84 4.99 9.897 6.06 14.982 0 0 .962 46.491-46.748 46.491-17.542-.563-33.884 8.873-42.167 24.345-17.395 32.492-63.98 32.492-81.374 0-8.283-15.473-24.626-24.908-42.167-24.345-47.712 0-46.748-46.491-46.748-46.491 1.071-5.085 3.055-10.141 6.06-14.982 9.258-14.91 9.258-33.781 0-48.69-19.442-31.31 3.851-71.654 40.687-70.472 17.541.563 33.884-8.872 42.167-24.345 17.395-32.492 63.98-32.492 81.374 0 8.283 15.473 24.626 24.908 42.167 24.345 36.836-1.182 60.129 39.162 40.687 70.472-9.257 14.91-9.257 33.781.002 48.69z" fill="#ffcb5b"/><g><path d="m338.855 444.705c-17.542-.563-33.884 8.872-42.167 24.345-17.395 32.492-63.98 32.492-81.375 0-8.283-15.473-24.626-24.908-42.167-24.345-24.124.774-42.438-16.264-46.745-36.91-5.855 27.81 15.604 56.489 46.745 55.49 17.541-.563 33.884 8.872 42.167 24.345 17.395 32.492 63.98 32.492 81.375 0 8.283-15.473 24.626-24.908 42.167-24.345 31.141.999 52.6-27.68 46.745-55.49-4.307 20.646-22.621 37.684-46.745 36.91z" fill="#f7b737"/></g><path d="m311.528 215.936h-111.056c-15.612 0-28.268-12.656-28.268-28.268v-4.667h167.592v4.667c0 15.612-12.656 28.268-28.268 28.268z" fill="#ffe27a"/><path d="m311.528 206.356h-111.056c-13.935 0-25.507-10.086-27.834-23.354h-.435v13.667c0 15.612 12.656 28.268 28.268 28.268h111.056c15.612 0 28.268-12.656 28.268-28.268v-13.667h-.434c-2.327 13.268-13.898 23.354-27.833 23.354z" fill="#f9cf58"/><g><g><path d="m411.114 5.161v85.44l-10.485 18.924-85.242 65.734h-118.775l-84.991-65.54-10.736-19.118v-85.44c0-2.851 2.311-5.161 5.161-5.161h299.906c2.852 0 5.162 2.311 5.162 5.161z" fill="#609e3f"/></g></g><path d="m196.612 164.421-95.727-73.82v16.043c0 1.6.742 3.11 2.01 4.087l93.717 72.27h118.775l93.717-72.27c1.267-.977 2.01-2.487 2.01-4.087v-16.043l-95.727 73.82z" fill="#548736"/><path d="m306.388 175.26h-100.776l-9-10.839v-164.421h118.776v164.421z" fill="#98db7c"/><path d="m196.612 164.421h118.775v18.581h-118.775z" fill="#82d361"/><path d="m343.592 359.466c-4.509-44.398-42.004-79.044-87.591-79.044-45.488 0-82.92 34.496-87.561 78.755-.32 3.053-.484 88.337 87.561 88.337 86.624 0 87.891-85.088 87.591-88.048z" fill="#ff9838"/><path d="m256 437.933c-45.488 0-82.912-34.497-87.555-78.756-.32 3.054-.491 6.152-.491 9.29 0 48.626 39.419 88.046 88.046 88.046s88.046-39.419 88.046-88.046c0-3.139-.171-6.237-.491-9.29-4.643 44.259-42.067 78.756-87.555 78.756z" fill="#ff8709"/><path d="m264.167 323.302 8.321 16.86c1.327 2.688 3.891 4.551 6.858 4.982l18.606 2.704c7.47 1.086 10.453 10.266 5.048 15.535l-13.463 13.123c-2.147 2.092-3.126 5.107-2.619 8.062l2.795 16.298h-12.833l-20.88-8.143-20.88 8.143h-12.832l2.795-16.298c.507-2.955-.473-5.969-2.62-8.062l-13.463-13.123c-5.406-5.269-2.423-14.45 5.048-15.535l18.606-2.704c2.967-.431 5.531-2.294 6.858-4.982l8.321-16.86c3.34-6.769 12.993-6.769 16.334 0z" fill="#fff5f5"/><g><path d="m289.712 400.866-31.31-16.461c-1.504-.79-3.3-.79-4.804 0l-31.31 16.461-.383 2.233c-1.277 7.44 6.533 13.115 13.215 9.602l16.641-8.749c2.654-1.395 5.824-1.395 8.477 0l16.641 8.749c6.682 3.513 14.492-2.161 13.215-9.602z" fill="#efe2dd"/></g><path d="m354.842 190.744h-197.684c-4.276 0-7.742-3.466-7.742-7.742s3.466-7.742 7.742-7.742h197.683c4.276 0 7.742 3.466 7.742 7.742s-3.465 7.742-7.741 7.742z" fill="#ff9838"/></g></g></svg>